<svg width="86" height="24" viewBox="0 0 86 24" fill="none" xmlns="http://www.w3.org/2000/svg">
<path d="M15.6186 11.1284C17.1543 10.0084 18.1544 8.19581 18.1544 6.15384C18.1544 2.76061 15.3937 0 12.0005 0C8.60727 0 5.84666 2.76061 5.84666 6.15384C5.84666 8.19581 6.84665 10.0084 8.38237 11.1284C4.56487 12.5892 1.84668 16.2905 1.84668 20.6154C1.84668 22.4817 3.36501 24 5.23129 24H18.7697C20.636 24 22.1543 22.4817 22.1543 20.6154C22.1543 16.2905 19.4361 12.5892 15.6186 11.1284ZM7.69284 6.15384C7.69284 3.77859 9.62526 1.84617 12.0005 1.84617C14.3758 1.84617 16.3082 3.77859 16.3082 6.15384C16.3082 8.52909 14.3758 10.4616 12.0005 10.4616C9.62526 10.4616 7.69284 8.52909 7.69284 6.15384ZM18.7697 22.1538H5.23129C4.38299 22.1538 3.69285 21.4637 3.69285 20.6153C3.69285 16.0344 7.4196 12.3076 12.0006 12.3076C16.5815 12.3076 20.3083 16.0344 20.3083 20.6153C20.3082 21.4637 19.6181 22.1538 18.7697 22.1538Z" fill="#273142" fill-opacity="0.9"/>
<path d="M41.462 17.368C41.462 17.8533 41.3453 18.306 41.112 18.726C40.8787 19.1367 40.524 19.468 40.048 19.72C39.572 19.972 38.9887 20.098 38.298 20.098C37.626 20.098 37.024 19.9813 36.492 19.748C35.96 19.5053 35.5353 19.1693 35.218 18.74C34.9007 18.3107 34.7187 17.816 34.672 17.256H36.38C36.4267 17.6853 36.6087 18.054 36.926 18.362C37.2527 18.67 37.6867 18.824 38.228 18.824C38.7133 18.824 39.0867 18.6933 39.348 18.432C39.6187 18.1707 39.754 17.8347 39.754 17.424C39.754 17.0693 39.656 16.78 39.46 16.556C39.264 16.3227 39.0213 16.1407 38.732 16.01C38.4427 15.8793 38.046 15.73 37.542 15.562C36.926 15.366 36.422 15.17 36.03 14.974C35.6473 14.778 35.3207 14.4933 35.05 14.12C34.7793 13.7467 34.644 13.2567 34.644 12.65C34.644 12.118 34.7747 11.6513 35.036 11.25C35.2973 10.8487 35.6707 10.5407 36.156 10.326C36.6413 10.102 37.2013 9.99 37.836 9.99C38.844 9.99 39.642 10.2327 40.23 10.718C40.8273 11.2033 41.168 11.838 41.252 12.622H39.53C39.4647 12.2487 39.2873 11.9313 38.998 11.67C38.718 11.3993 38.3307 11.264 37.836 11.264C37.388 11.264 37.0287 11.3807 36.758 11.614C36.4873 11.838 36.352 12.1647 36.352 12.594C36.352 12.93 36.4453 13.21 36.632 13.434C36.8187 13.6487 37.052 13.8213 37.332 13.952C37.6213 14.0733 38.0133 14.218 38.508 14.386C39.1333 14.582 39.642 14.7827 40.034 14.988C40.4353 15.184 40.7713 15.4733 41.042 15.856C41.322 16.2387 41.462 16.7427 41.462 17.368ZM42.8358 10.046C42.8358 9.77533 42.9291 9.55133 43.1158 9.374C43.3024 9.19667 43.5498 9.108 43.8578 9.108C44.1658 9.108 44.4131 9.19667 44.5998 9.374C44.7958 9.55133 44.8938 9.77533 44.8938 10.046C44.8938 10.3167 44.7958 10.536 44.5998 10.704C44.4131 10.872 44.1658 10.956 43.8578 10.956C43.5498 10.956 43.3024 10.872 43.1158 10.704C42.9291 10.536 42.8358 10.3167 42.8358 10.046ZM44.6558 12.286V20H43.0598V12.286H44.6558ZM49.6811 12.188C50.3811 12.188 50.9784 12.3607 51.4731 12.706C51.9678 13.0513 52.3178 13.5087 52.5231 14.078V12.286H54.1191V20.084C54.1191 20.8027 53.9698 21.4373 53.6711 21.988C53.3818 22.548 52.9618 22.9867 52.4111 23.304C51.8604 23.6213 51.2071 23.78 50.4511 23.78C49.3684 23.78 48.4911 23.5233 47.8191 23.01C47.1564 22.4967 46.7411 21.8013 46.5731 20.924H48.1551C48.2858 21.3813 48.5378 21.736 48.9111 21.988C49.2844 22.2493 49.7604 22.38 50.3391 22.38C50.9738 22.38 51.4964 22.184 51.9071 21.792C52.3178 21.4 52.5231 20.8307 52.5231 20.084V18.208C52.3178 18.7773 51.9678 19.2347 51.4731 19.58C50.9784 19.9253 50.3811 20.098 49.6811 20.098C49.0091 20.098 48.4071 19.9393 47.8751 19.622C47.3524 19.3047 46.9418 18.8473 46.6431 18.25C46.3444 17.6527 46.1951 16.948 46.1951 16.136C46.1951 15.3333 46.3444 14.6333 46.6431 14.036C46.9418 13.4387 47.3524 12.9813 47.8751 12.664C48.4071 12.3467 49.0091 12.188 49.6811 12.188ZM50.1711 13.588C49.4618 13.588 48.8924 13.8167 48.4631 14.274C48.0431 14.722 47.8331 15.3427 47.8331 16.136C47.8331 16.9293 48.0431 17.5547 48.4631 18.012C48.8924 18.46 49.4618 18.684 50.1711 18.684C50.6191 18.684 51.0204 18.5813 51.3751 18.376C51.7298 18.1613 52.0098 17.8627 52.2151 17.48C52.4204 17.0973 52.5231 16.6493 52.5231 16.136C52.5231 15.632 52.4204 15.1887 52.2151 14.806C52.0098 14.414 51.7298 14.1153 51.3751 13.91C51.0204 13.6953 50.6191 13.588 50.1711 13.588ZM60.3464 12.16C61.2424 12.16 61.961 12.4493 62.5024 13.028C63.0437 13.6067 63.3144 14.4327 63.3144 15.506V20H61.7184V15.674C61.7184 14.9833 61.541 14.4513 61.1864 14.078C60.8317 13.6953 60.3464 13.504 59.7304 13.504C59.0957 13.504 58.587 13.7093 58.2044 14.12C57.8217 14.5213 57.6304 15.114 57.6304 15.898V20H56.0344V12.286H57.6304V13.98C57.8357 13.4013 58.181 12.9533 58.6664 12.636C59.1517 12.3187 59.7117 12.16 60.3464 12.16ZM75.5741 12.286V20H73.9641V18.32C73.7681 18.8893 73.4274 19.3327 72.9421 19.65C72.4568 19.958 71.8921 20.112 71.2481 20.112C70.3521 20.112 69.6334 19.8227 69.0921 19.244C68.5508 18.6653 68.2801 17.8393 68.2801 16.766V12.286H69.8761V16.598C69.8761 17.298 70.0534 17.8393 70.4081 18.222C70.7628 18.5953 71.2481 18.782 71.8641 18.782C72.4988 18.782 73.0074 18.5767 73.3901 18.166C73.7728 17.7553 73.9641 17.158 73.9641 16.374V12.286H75.5741ZM81.9095 12.188C82.5815 12.188 83.1789 12.3467 83.7015 12.664C84.2335 12.9813 84.6489 13.4387 84.9475 14.036C85.2462 14.6333 85.3955 15.3333 85.3955 16.136C85.3955 16.948 85.2462 17.6527 84.9475 18.25C84.6489 18.8473 84.2335 19.3047 83.7015 19.622C83.1789 19.9393 82.5815 20.098 81.9095 20.098C81.2095 20.098 80.6122 19.9253 80.1175 19.58C79.6229 19.2347 79.2775 18.7773 79.0815 18.208V23.668H77.4855V12.286H79.0815V14.078C79.2775 13.5087 79.6229 13.0513 80.1175 12.706C80.6122 12.3607 81.2095 12.188 81.9095 12.188ZM81.4195 13.588C80.9715 13.588 80.5702 13.6953 80.2155 13.91C79.8609 14.1153 79.5809 14.414 79.3755 14.806C79.1702 15.1887 79.0675 15.632 79.0675 16.136C79.0675 16.6493 79.1702 17.0973 79.3755 17.48C79.5809 17.8627 79.8609 18.1613 80.2155 18.376C80.5702 18.5813 80.9715 18.684 81.4195 18.684C82.1289 18.684 82.6982 18.46 83.1275 18.012C83.5569 17.5547 83.7715 16.9293 83.7715 16.136C83.7715 15.352 83.5569 14.7313 83.1275 14.274C82.6982 13.8167 82.1289 13.588 81.4195 13.588Z" fill="#2E2E2E"/>
</svg>
