<svg width="79" height="24" viewBox="0 0 79 24" fill="none" xmlns="http://www.w3.org/2000/svg">
<path d="M19.6667 6.33337H5C3.89543 6.33337 3 7.2288 3 8.33337V20.3334C3 21.4379 3.89543 22.3334 5 22.3334H19.6667C20.7712 22.3334 21.6667 21.4379 21.6667 20.3334V8.33337C21.6667 7.2288 20.7712 6.33337 19.6667 6.33337Z" stroke="#3D4655" stroke-width="2" stroke-linecap="square"/>
<path d="M7 9V6.33333C7 4.91885 7.5619 3.56229 8.5621 2.5621C9.56229 1.5619 10.9188 1 12.3333 1C13.7478 1 15.1044 1.5619 16.1046 2.5621C17.1048 3.56229 17.6667 4.91885 17.6667 6.33333V9" stroke="#3D4655" stroke-width="2" stroke-linecap="round"/>
<path d="M38.118 14.904C38.7153 15.0253 39.196 15.31 39.56 15.758C39.9333 16.206 40.12 16.7287 40.12 17.326C40.12 18.1473 39.8447 18.8007 39.294 19.286C38.7433 19.762 37.9453 20 36.9 20H32.966V10.116H36.83C37.8193 10.116 38.5753 10.34 39.098 10.788C39.63 11.2267 39.896 11.8333 39.896 12.608C39.896 13.2333 39.7327 13.742 39.406 14.134C39.0793 14.5167 38.65 14.7733 38.118 14.904ZM34.562 14.372H36.536C37.096 14.372 37.5207 14.2413 37.81 13.98C38.1087 13.7187 38.258 13.3547 38.258 12.888C38.258 12.4307 38.1087 12.0713 37.81 11.81C37.5207 11.5487 37.0773 11.418 36.48 11.418H34.562V14.372ZM36.578 18.684C37.1847 18.684 37.6513 18.5487 37.978 18.278C38.314 17.998 38.482 17.6107 38.482 17.116C38.482 16.6213 38.314 16.234 37.978 15.954C37.642 15.674 37.1707 15.534 36.564 15.534H34.562V18.684H36.578ZM44.7143 12.188C45.4143 12.188 46.0116 12.3607 46.5063 12.706C47.001 13.0513 47.351 13.5087 47.5563 14.078V12.286H49.1523V20H47.5563V18.208C47.351 18.7773 47.001 19.2347 46.5063 19.58C46.0116 19.9253 45.4143 20.098 44.7143 20.098C44.0423 20.098 43.4403 19.9393 42.9083 19.622C42.3856 19.3047 41.975 18.8473 41.6763 18.25C41.3776 17.6527 41.2283 16.948 41.2283 16.136C41.2283 15.3333 41.3776 14.6333 41.6763 14.036C41.975 13.4387 42.3856 12.9813 42.9083 12.664C43.4403 12.3467 44.0423 12.188 44.7143 12.188ZM45.2043 13.588C44.495 13.588 43.9256 13.8167 43.4963 14.274C43.0763 14.722 42.8663 15.3427 42.8663 16.136C42.8663 16.9293 43.0763 17.5547 43.4963 18.012C43.9256 18.46 44.495 18.684 45.2043 18.684C45.6523 18.684 46.0536 18.5813 46.4083 18.376C46.763 18.1613 47.043 17.8627 47.2483 17.48C47.4536 17.0973 47.5563 16.6493 47.5563 16.136C47.5563 15.632 47.4536 15.1887 47.2483 14.806C47.043 14.414 46.763 14.1153 46.4083 13.91C46.0536 13.6953 45.6523 13.588 45.2043 13.588ZM53.6016 12.188C54.5069 12.188 55.2302 12.4213 55.7716 12.888C56.3222 13.3453 56.6582 13.9613 56.7796 14.736H55.2676C55.2022 14.316 55.0202 13.98 54.7216 13.728C54.4322 13.4667 54.0449 13.336 53.5596 13.336C53.1582 13.336 52.8456 13.434 52.6216 13.63C52.4069 13.8167 52.2996 14.0733 52.2996 14.4C52.2996 14.6427 52.3789 14.8387 52.5376 14.988C52.6962 15.1373 52.8922 15.254 53.1256 15.338C53.3682 15.422 53.7089 15.5153 54.1476 15.618C54.7262 15.7487 55.1929 15.884 55.5476 16.024C55.9116 16.164 56.2196 16.388 56.4716 16.696C56.7329 16.9947 56.8636 17.4053 56.8636 17.928C56.8636 18.572 56.6162 19.0947 56.1216 19.496C55.6362 19.8973 54.9782 20.098 54.1476 20.098C53.1862 20.098 52.4069 19.874 51.8096 19.426C51.2216 18.978 50.8669 18.3527 50.7456 17.55H52.2996C52.3462 17.97 52.5329 18.3107 52.8596 18.572C53.1862 18.8333 53.6156 18.964 54.1476 18.964C54.5302 18.964 54.8289 18.866 55.0436 18.67C55.2676 18.4647 55.3796 18.208 55.3796 17.9C55.3796 17.6293 55.2956 17.4147 55.1276 17.256C54.9596 17.0973 54.7496 16.976 54.4976 16.892C54.2456 16.7987 53.9002 16.7053 53.4616 16.612C52.9016 16.4813 52.4442 16.3507 52.0896 16.22C51.7442 16.0893 51.4456 15.8793 51.1936 15.59C50.9509 15.2913 50.8296 14.89 50.8296 14.386C50.8296 13.7327 51.0722 13.2053 51.5576 12.804C52.0522 12.3933 52.7336 12.188 53.6016 12.188ZM62.832 20L60.06 16.57V20H58.464V9.64H60.06V15.576L62.804 12.286H64.722L61.362 16.122L64.806 20H62.832ZM73.0149 15.772C73.0149 16.0333 72.9962 16.262 72.9589 16.458H67.0229C67.0509 17.2513 67.2702 17.8393 67.6809 18.222C68.0915 18.6047 68.6002 18.796 69.2069 18.796C69.7389 18.796 70.1869 18.6607 70.5509 18.39C70.9242 18.1193 71.1529 17.76 71.2369 17.312H72.9449C72.8422 17.8533 72.6275 18.334 72.3009 18.754C71.9742 19.174 71.5495 19.5053 71.0269 19.748C70.5042 19.9813 69.9209 20.098 69.2769 20.098C68.5302 20.098 67.8675 19.9393 67.2889 19.622C66.7195 19.3047 66.2715 18.8473 65.9449 18.25C65.6182 17.6527 65.4549 16.948 65.4549 16.136C65.4549 15.3333 65.6182 14.6333 65.9449 14.036C66.2715 13.4387 66.7195 12.9813 67.2889 12.664C67.8675 12.3467 68.5302 12.188 69.2769 12.188C70.0329 12.188 70.6909 12.3467 71.2509 12.664C71.8202 12.972 72.2542 13.4013 72.5529 13.952C72.8609 14.4933 73.0149 15.1 73.0149 15.772ZM71.4049 15.73C71.4235 15.226 71.3349 14.806 71.1389 14.47C70.9522 14.1247 70.6909 13.8727 70.3549 13.714C70.0282 13.546 69.6689 13.462 69.2769 13.462C68.6515 13.462 68.1289 13.6533 67.7089 14.036C67.2889 14.4187 67.0602 14.9833 67.0229 15.73H71.4049ZM78.4338 18.614V20H77.4538C76.6325 20 76.0072 19.804 75.5778 19.412C75.1578 19.0107 74.9478 18.348 74.9478 17.424V13.644H73.8418V12.286H74.9478V10.368H76.5578V12.286H78.4198V13.644H76.5578V17.452C76.5578 17.8907 76.6372 18.194 76.7958 18.362C76.9638 18.53 77.2532 18.614 77.6638 18.614H78.4338Z" fill="#2E2E2E"/>
</svg>
