<svg width="86" height="24" viewBox="0 0 86 24" fill="none" xmlns="http://www.w3.org/2000/svg">
<g clip-path="url(#clip0_1_1251)">
<path d="M22.0718 3.96971C19.4616 1.36022 15.2154 1.36022 12.6059 3.96971L11.9998 4.57546L11.394 3.96971C8.78456 1.35987 4.53796 1.35987 1.92847 3.96971C-0.628033 6.52621 -0.644634 10.5785 1.88997 13.3961C4.20171 15.9649 11.0196 21.5149 11.3089 21.7498C11.5053 21.9094 11.7416 21.9871 11.9765 21.9871C11.9843 21.9871 11.992 21.9871 11.9994 21.9868C12.2424 21.9981 12.4872 21.9147 12.69 21.7498C12.9792 21.5149 19.7979 15.9649 22.1103 13.3957C24.6446 10.5785 24.628 6.52621 22.0718 3.96971ZM20.535 11.9783C18.7326 13.9806 13.7782 18.1103 11.9994 19.5758C10.2207 18.1107 5.26733 13.9813 3.46527 11.9787C1.69712 10.0134 1.68052 7.21461 3.42677 5.46836C4.31862 4.57687 5.48985 4.13077 6.66108 4.13077C7.83231 4.13077 9.00355 4.57652 9.89539 5.46836L11.2277 6.80066C11.3863 6.95925 11.5862 7.0539 11.796 7.08711C12.1365 7.16022 12.5059 7.06521 12.7708 6.80101L14.1038 5.46836C15.8879 3.68502 18.7898 3.68538 20.5728 5.46836C22.3191 7.21461 22.3025 10.0134 20.535 11.9783Z" fill="#273142" fill-opacity="0.9"/>
</g>
<path d="M45.482 10.116L43.018 20H41.058L38.972 12.356L36.886 20H34.926L32.462 10.116H34.212L35.92 18.152L38.09 10.116H39.854L42.024 18.152L43.732 10.116H45.482ZM46.6873 10.046C46.6873 9.77533 46.7806 9.55133 46.9673 9.374C47.154 9.19667 47.4013 9.108 47.7093 9.108C48.0173 9.108 48.2646 9.19667 48.4513 9.374C48.6473 9.55133 48.7453 9.77533 48.7453 10.046C48.7453 10.3167 48.6473 10.536 48.4513 10.704C48.2646 10.872 48.0173 10.956 47.7093 10.956C47.4013 10.956 47.154 10.872 46.9673 10.704C46.7806 10.536 46.6873 10.3167 46.6873 10.046ZM48.5073 12.286V20H46.9113V12.286H48.5073ZM52.9727 12.188C53.878 12.188 54.6013 12.4213 55.1427 12.888C55.6933 13.3453 56.0293 13.9613 56.1507 14.736H54.6387C54.5733 14.316 54.3913 13.98 54.0927 13.728C53.8033 13.4667 53.416 13.336 52.9307 13.336C52.5293 13.336 52.2167 13.434 51.9927 13.63C51.778 13.8167 51.6707 14.0733 51.6707 14.4C51.6707 14.6427 51.75 14.8387 51.9087 14.988C52.0673 15.1373 52.2633 15.254 52.4967 15.338C52.7393 15.422 53.08 15.5153 53.5187 15.618C54.0973 15.7487 54.564 15.884 54.9187 16.024C55.2827 16.164 55.5907 16.388 55.8427 16.696C56.104 16.9947 56.2347 17.4053 56.2347 17.928C56.2347 18.572 55.9873 19.0947 55.4927 19.496C55.0073 19.8973 54.3493 20.098 53.5187 20.098C52.5573 20.098 51.778 19.874 51.1807 19.426C50.5927 18.978 50.238 18.3527 50.1167 17.55H51.6707C51.7173 17.97 51.904 18.3107 52.2307 18.572C52.5573 18.8333 52.9867 18.964 53.5187 18.964C53.9013 18.964 54.2 18.866 54.4147 18.67C54.6387 18.4647 54.7507 18.208 54.7507 17.9C54.7507 17.6293 54.6667 17.4147 54.4987 17.256C54.3307 17.0973 54.1207 16.976 53.8687 16.892C53.6167 16.7987 53.2713 16.7053 52.8327 16.612C52.2727 16.4813 51.8153 16.3507 51.4607 16.22C51.1153 16.0893 50.8167 15.8793 50.5647 15.59C50.322 15.2913 50.2007 14.89 50.2007 14.386C50.2007 13.7327 50.4433 13.2053 50.9287 12.804C51.4233 12.3933 52.1047 12.188 52.9727 12.188ZM62.1471 12.16C63.0431 12.16 63.7618 12.4493 64.3031 13.028C64.8445 13.6067 65.1151 14.4327 65.1151 15.506V20H63.5191V15.674C63.5191 14.9833 63.3418 14.4513 62.9871 14.078C62.6325 13.6953 62.1471 13.504 61.5311 13.504C60.8965 13.504 60.3878 13.7093 60.0051 14.12C59.6225 14.5213 59.4311 15.114 59.4311 15.898V20H57.8351V9.64H59.4311V13.98C59.6365 13.4013 59.9818 12.9533 60.4671 12.636C60.9525 12.3187 61.5125 12.16 62.1471 12.16ZM68.5776 9.64V20H66.9816V9.64H68.5776ZM70.285 10.046C70.285 9.77533 70.3783 9.55133 70.565 9.374C70.7516 9.19667 70.999 9.108 71.307 9.108C71.615 9.108 71.8623 9.19667 72.049 9.374C72.245 9.55133 72.343 9.77533 72.343 10.046C72.343 10.3167 72.245 10.536 72.049 10.704C71.8623 10.872 71.615 10.956 71.307 10.956C70.999 10.956 70.7516 10.872 70.565 10.704C70.3783 10.536 70.285 10.3167 70.285 10.046ZM72.105 12.286V20H70.509V12.286H72.105ZM76.5703 12.188C77.4756 12.188 78.199 12.4213 78.7403 12.888C79.291 13.3453 79.627 13.9613 79.7483 14.736H78.2363C78.171 14.316 77.989 13.98 77.6903 13.728C77.401 13.4667 77.0136 13.336 76.5283 13.336C76.127 13.336 75.8143 13.434 75.5903 13.63C75.3756 13.8167 75.2683 14.0733 75.2683 14.4C75.2683 14.6427 75.3476 14.8387 75.5063 14.988C75.665 15.1373 75.861 15.254 76.0943 15.338C76.337 15.422 76.6776 15.5153 77.1163 15.618C77.695 15.7487 78.1616 15.884 78.5163 16.024C78.8803 16.164 79.1883 16.388 79.4403 16.696C79.7016 16.9947 79.8323 17.4053 79.8323 17.928C79.8323 18.572 79.585 19.0947 79.0903 19.496C78.605 19.8973 77.947 20.098 77.1163 20.098C76.155 20.098 75.3756 19.874 74.7783 19.426C74.1903 18.978 73.8356 18.3527 73.7143 17.55H75.2683C75.315 17.97 75.5016 18.3107 75.8283 18.572C76.155 18.8333 76.5843 18.964 77.1163 18.964C77.499 18.964 77.7976 18.866 78.0123 18.67C78.2363 18.4647 78.3483 18.208 78.3483 17.9C78.3483 17.6293 78.2643 17.4147 78.0963 17.256C77.9283 17.0973 77.7183 16.976 77.4663 16.892C77.2143 16.7987 76.869 16.7053 76.4303 16.612C75.8703 16.4813 75.413 16.3507 75.0583 16.22C74.713 16.0893 74.4143 15.8793 74.1623 15.59C73.9196 15.2913 73.7983 14.89 73.7983 14.386C73.7983 13.7327 74.041 13.2053 74.5263 12.804C75.021 12.3933 75.7023 12.188 76.5703 12.188ZM85.3108 18.614V20H84.3308C83.5095 20 82.8841 19.804 82.4548 19.412C82.0348 19.0107 81.8248 18.348 81.8248 17.424V13.644H80.7188V12.286H81.8248V10.368H83.4348V12.286H85.2968V13.644H83.4348V17.452C83.4348 17.8907 83.5141 18.194 83.6728 18.362C83.8408 18.53 84.1301 18.614 84.5408 18.614H85.3108Z" fill="#2E2E2E"/>
<defs>
<clipPath id="clip0_1_1251">
<rect width="24" height="24" fill="white"/>
</clipPath>
</defs>
</svg>
